<?xml version="1.0" encoding="utf-8"?>
<!-- Generator: Adobe Illustrator 22.1.0, SVG Export Plug-In . SVG Version: 6.00 Build 0)  -->
<svg version="1.1" id="Layer_1" xmlns="http://www.w3.org/2000/svg" xmlns:xlink="http://www.w3.org/1999/xlink" x="0px" y="0px"
	 viewBox="0 0 48 48" style="enable-background:new 0 0 48 48;" xml:space="preserve">
<style type="text/css">
	.st0{fill:#FFFFFF;}
</style>
<path class="st0" d="M24,47.5c-13.2,0-24-10.6-24-23.6S10.7,0.3,24,0.3c13.2,0,24,10.6,24,23.6S37.2,47.5,24,47.5z M2.2,23.9
	c0,9.1,5.7,16.8,13.8,19.9c-0.2-1.7-0.4-4.3,0.1-6.1C16.5,36,18.6,27,18.6,27S18,25.8,18,23.9c0-3,1.7-5.2,3.9-5.2
	c1.9,0,2.7,1.4,2.7,3c0,1.8-1.2,4.6-1.8,7.1c-0.5,2.1,1.1,3.9,3.2,3.9c3.9,0,6.8-4,6.8-9.8c0-5.1-3.7-8.7-9.1-8.7
	c-6.2,0-9.8,4.6-9.8,9.3c0,1.8,0.7,3.8,1.6,4.9c0.2,0.2,0.2,0.4,0.2,0.6c-0.2,0.7-0.5,2.1-0.6,2.4c-0.1,0.4-0.3,0.5-0.7,0.3
	c-2.7-1.2-4.4-5.1-4.4-8.3c0-6.7,5-12.9,14.3-12.9c7.5,0,13.4,5.3,13.4,12.3c0,7.4-4.7,13.3-11.3,13.3c-2.2,0-4.3-1.1-5-2.5
	c0,0-1.1,4.1-1.4,5.1c-0.5,1.9-1.8,4.2-2.7,5.6c2,0.6,4.2,1,6.4,1c12,0,21.7-9.6,21.7-21.4c0-11.8-9.7-21.4-21.7-21.4
	S2.2,12.1,2.2,23.9z"/>
</svg>
