<?xml version="1.0" encoding="utf-8"?>
<!-- Generator: Adobe Illustrator 22.1.0, SVG Export Plug-In . SVG Version: 6.00 Build 0)  -->
<svg version="1.1" id="Capa_1" xmlns="http://www.w3.org/2000/svg" xmlns:xlink="http://www.w3.org/1999/xlink" x="0px" y="0px"
	 viewBox="0 0 612 612" style="enable-background:new 0 0 612 612;" xml:space="preserve">
<style type="text/css">
	.st0{fill:#FFFFFF;}
</style>
<g>
	<path class="st0" d="M197.6,557.2c-68,0-134.2-19.4-191.3-56c-5.3-3.4-7.6-10.1-5.5-16.1c2.1-6,8.2-9.8,14.4-8.9
		c47.9,5.6,97.9-4.2,139.9-28.2c-41.5-12.5-75.2-44.6-88.9-87.2c-1.5-4.6-0.4-9.6,2.8-13.2c2-2.2,4.5-3.6,7.3-4.2
		C44,318.7,23.5,279.8,23.5,237c0-4.8,2.6-10,6.7-12.5c4.2-2.4,9.3-3.2,13.5-0.9c1.2,0.7,2.4,1.3,3.6,1.9
		c-14.7-21.7-22.9-47.7-22.9-74.9c0-23.6,6.2-46.8,18.1-67.1c2.2-3.9,6.2-6.4,10.7-6.7c4.4-0.3,8.8,1.5,11.6,5
		c55,67.5,134.7,110.3,220.6,119.1c-0.4-4.1-0.6-8.3-0.6-12.4c0-73.7,59.9-133.6,133.6-133.6c34.2,0,67.3,13.3,92,36.6
		c22.7-5.2,44.5-13.9,64.8-26c4.9-2.8,11-2.4,15.4,1.1c4.4,3.5,6.2,9.4,4.5,14.8c-4.3,13.5-10.7,26.2-19,37.5
		c5.7-2,11.2-4.2,16.7-6.6c5.5-2.5,12-1,15.9,3.7c3.9,4.6,4.2,11.3,0.9,16.3c-15.8,23.6-35.1,44.1-57.3,61.2
		c0.1,2.9,0.1,5.9,0.1,8.8C552.5,376.7,419.7,557.2,197.6,557.2z M68.9,503.7C109.3,521,153,530,197.6,530
		c205.2,0,327.8-166.6,327.8-327.8c0-5-0.1-10-0.3-15c-0.2-4.6,1.9-8.9,5.6-11.6c9.8-7.1,19-14.9,27.5-23.4c-8.9,2-17.9,3.6-27,4.7
		c-6.3,0.9-12.4-3-14.5-9.1c-2.1-6.1,0.4-12.8,5.9-16.1c10.8-6.5,20.3-14.7,28.1-24.3c-13.6,5.2-27.6,9.3-41.8,12
		c-4.6,1-9.3-0.6-12.5-4c-20-21.3-48.3-33.6-77.7-33.6c-58.7,0-106.4,47.7-106.4,106.4c0,8.1,0.9,16.3,2.8,24.3
		c1,4.1-0.1,8.5-2.8,11.8c-2.7,3.3-6.8,5.5-11.1,4.8c-92.9-4.7-180.3-46-243.2-114.2c-4,11.4-6.1,23.4-6.1,35.5
		c0,35.7,17.7,68.8,47.3,88.5c5.1,3.4,7.3,9.7,5.4,15.5c-1.8,5.8-7.6,9.3-13.4,9.5c-13-0.4-25.9-2.7-38.2-6.9
		c8.4,42.1,40.8,75.6,83.1,84.1c6.2,1.3,10.7,6.6,10.9,12.9c0.2,6.3-3.9,11.9-10,13.6c-11.7,3.2-24.1,5-36.1,4.7
		c18.2,32.2,52.5,53.2,90.7,54c5.7,0.1,10.8,3.9,12.6,9.3s0,11.5-4.5,15C161.4,480.8,116.6,498.8,68.9,503.7z"/>
</g>
</svg>
