<?xml version="1.0" encoding="utf-8"?>
<!-- Generator: Adobe Illustrator 22.1.0, SVG Export Plug-In . SVG Version: 6.00 Build 0)  -->
<svg version="1.1" id="Layer_1" xmlns="http://www.w3.org/2000/svg" xmlns:xlink="http://www.w3.org/1999/xlink" x="0px" y="0px"
	 viewBox="0 0 512 512" style="enable-background:new 0 0 512 512;" xml:space="preserve">
<style type="text/css">
	.st0{fill:#FFFFFF;}
	.st1{fill:#A7ABAF;}
</style>
<g>
	<path class="st0" d="M258.8,507.2C120.4,507.8,6.6,392.6,9.9,251.9C13,118,123.9,7.2,262,8.7C398.7,10.2,511.8,124,508.1,264.8
		C504.6,398.3,394.6,507.9,258.8,507.2z M40.2,258.2C41.3,383.3,142.4,479.5,261.8,478c116.3-1.5,215.7-96,215.8-219.9
		C477.7,132.9,375.7,36.4,255.9,38C139.6,39.6,41.1,134.3,40.2,258.2z"/>
	<path class="st0" d="M257.7,360.3c-33.8-1.1-67.6-2.1-101.4-3.5c-7.2-0.3-14.6-1.7-21.5-3.8c-16.4-5-23.6-18.1-25.8-33.7
		c-2.5-17.6-4.2-35.4-4.4-53.2c-0.2-23.9,1.3-47.9,2.6-71.9c0.6-10.3,3.3-20.5,9-29.3c8.1-12.7,20.8-17,35-17.8
		c65.9-3.8,131.9-4,197.8-0.8c7.3,0.4,14.6,0.9,21.9,1.7c16.4,2,28.3,10.6,32.8,26.6c3.3,11.9,5.6,24.4,6,36.8
		c0.9,26.9,0.7,53.9,0.1,80.9c-0.3,11.2-2.2,22.5-4.9,33.5c-4.5,18.6-17.3,28.8-36.3,30.4c-16.3,1.3-32.6,2.2-48.9,2.5
		c-20.6,0.4-41.3,0.1-62,0.1C257.7,359.2,257.7,359.8,257.7,360.3z M308.8,248.7c-28-14.6-55.1-28.7-82.5-43c0,29,0,57,0,85.8
		C253.9,277.2,281,263.2,308.8,248.7z"/>
</g>
<polygon class="st1" points="308.8,248.6 226.3,202.8 226.3,294.4 "/>
</svg>
